<svg width="330" height="330" viewBox="0 0 330 330" fill="none" xmlns="http://www.w3.org/2000/svg">
<circle cx="161" cy="112" r="34" fill="#6B6B6B"/>
<path fill-rule="evenodd" clip-rule="evenodd" d="M231.16 204H89.8398C96.6635 174.735 112.054 151.109 131.734 139.268C139.036 147.101 149.446 152 161 152C172.363 152 182.619 147.262 189.9 139.655C209.276 151.619 224.41 175.05 231.16 204Z" fill="#6B6B6B"/>
<path d="M255.312 152.795C253.611 153.641 252.645 155.377 252.698 157.16L201.191 182.784L200.415 181.225C194.595 169.526 180.393 164.76 168.694 170.58L168.423 170.715C165.472 172.183 162.883 174.287 160.842 176.875C157.512 181.097 152.315 183.407 146.95 183.049L136.016 182.319C129.732 181.9 123.45 183.157 117.811 185.962C100.23 194.708 93.0682 216.051 101.815 233.632L108.37 246.808C117.05 264.257 138.232 271.365 155.681 262.685C161.487 259.796 166.385 255.364 169.837 249.874L175.634 240.654C178.481 236.127 183.496 233.428 188.842 233.547C192.278 233.624 195.681 232.864 198.757 231.333L199.218 231.104C210.734 225.375 215.425 211.396 209.696 199.88L208.751 197.981L260.259 172.357C261.648 173.474 263.615 173.751 265.316 172.905L284.353 163.434C286.684 162.275 287.633 159.445 286.474 157.114L280.669 145.446C279.509 143.115 276.68 142.165 274.348 143.325L255.312 152.795Z" fill="#6B6B6B" stroke="white" stroke-width="6"/>
<circle cx="175.298" cy="204.869" r="10.7158" fill="white"/>
</svg>
