<svg width="330" height="330" viewBox="0 0 330 330" fill="none" xmlns="http://www.w3.org/2000/svg">
<circle cx="148.767" cy="112" r="37" fill="#AFAFAF"/>
<path fill-rule="evenodd" clip-rule="evenodd" d="M224.856 212.176H71C78.4289 180.315 95.1848 154.594 116.611 141.702C124.56 150.231 135.893 155.564 148.472 155.564C160.843 155.564 172.008 150.406 179.936 142.123C201.031 155.149 217.507 180.658 224.856 212.176Z" fill="#AFAFAF"/>
<g filter="url(#filter0_d_0_1)">
<path fill-rule="evenodd" clip-rule="evenodd" d="M274.418 131.624C275.341 131.165 276.462 131.541 276.921 132.464L283.24 145.167C283.699 146.09 283.323 147.21 282.4 147.669L261.675 157.979C260.752 158.439 259.632 158.063 259.173 157.14L258.674 156.137L197.169 186.735L191.847 176.038L253.352 145.44L252.853 144.437C252.394 143.514 252.77 142.394 253.693 141.935L274.418 131.624ZM189.548 171.417C184.015 160.295 170.514 155.765 159.392 161.297L159.097 161.444C156.316 162.828 153.877 164.81 151.954 167.249C147.662 172.691 140.963 175.668 134.047 175.206L122.143 174.412C115.879 173.994 109.617 175.247 103.996 178.043C86.4704 186.762 79.3311 208.037 88.0498 225.563L95.1863 239.908C103.833 257.289 124.934 264.37 142.315 255.723C148.099 252.846 152.978 248.431 156.416 242.962L162.728 232.924C166.439 227.023 172.977 223.505 179.945 223.66C183.157 223.731 186.337 223.021 189.213 221.59L189.714 221.341C200.636 215.907 205.085 202.649 199.652 191.727L189.548 171.417ZM165.127 207.37C171.57 207.37 176.793 202.147 176.793 195.704C176.793 189.261 171.57 184.037 165.127 184.037C158.684 184.037 153.461 189.261 153.461 195.704C153.461 202.147 158.684 207.37 165.127 207.37Z" fill="#6B6B6B"/>
</g>
<defs>
<filter id="filter0_d_0_1" x="80.332" y="131.428" width="207.104" height="135.982" filterUnits="userSpaceOnUse" color-interpolation-filters="sRGB">
<feFlood flood-opacity="0" result="BackgroundImageFix"/>
<feColorMatrix in="SourceAlpha" type="matrix" values="0 0 0 0 0 0 0 0 0 0 0 0 0 0 0 0 0 0 127 0" result="hardAlpha"/>
<feOffset dy="4"/>
<feGaussianBlur stdDeviation="2"/>
<feComposite in2="hardAlpha" operator="out"/>
<feColorMatrix type="matrix" values="0 0 0 0 0 0 0 0 0 0 0 0 0 0 0 0 0 0 0.25 0"/>
<feBlend mode="normal" in2="BackgroundImageFix" result="effect1_dropShadow_0_1"/>
<feBlend mode="normal" in="SourceGraphic" in2="effect1_dropShadow_0_1" result="shape"/>
</filter>
</defs>
</svg>
