<svg width="250" height="250" viewBox="0 0 250 250" fill="none" xmlns="http://www.w3.org/2000/svg">
<circle cx="118" cy="63" r="33.5" stroke="black" stroke-width="13"/>
<path d="M151.439 103.982L155.419 98.8431C153.027 96.9905 149.673 97.0331 147.329 98.946L151.439 103.982ZM190.153 171.903V178.403C192.135 178.403 194.01 177.498 195.243 175.945C196.476 174.393 196.933 172.363 196.484 170.431L190.153 171.903ZM84.1403 103.654L88.2985 98.6585C85.9692 96.7197 82.6091 96.648 80.1991 98.4855L84.1403 103.654ZM45 171.903L38.6687 170.431C38.2199 172.363 38.6771 174.393 39.9101 175.945C41.1432 177.498 43.0174 178.403 45 178.403V171.903ZM100.797 171.903V178.403C102.814 178.403 104.717 177.466 105.948 175.867C107.178 174.269 107.597 172.189 107.081 170.239L100.797 171.903ZM147.886 171.903L141.602 170.239C141.086 172.189 141.504 174.269 142.735 175.867C143.965 177.466 145.868 178.403 147.886 178.403V171.903ZM147.459 109.121C163.746 121.736 177.127 144.564 183.822 173.374L196.484 170.431C189.34 139.691 174.761 113.825 155.419 98.8431L147.459 109.121ZM117.988 122.386C132.227 122.386 145.312 117.371 155.548 109.018L147.329 98.946C139.328 105.475 129.124 109.386 117.988 109.386V122.386ZM79.9821 108.65C90.2828 117.224 103.541 122.386 117.988 122.386V109.386C106.691 109.386 96.3506 105.36 88.2985 98.6585L79.9821 108.65ZM51.3313 173.374C58.0804 144.331 71.6211 121.374 88.0815 108.823L80.1991 98.4855C60.6229 113.412 45.8684 139.45 38.6687 170.431L51.3313 173.374ZM100.797 165.403H45V178.403H100.797V165.403ZM93.4876 165.653C93.4876 168.38 93.843 171.034 94.5136 173.566L107.081 170.239C106.695 168.783 106.488 167.247 106.488 165.653H93.4876ZM124.341 134.799C107.301 134.799 93.4876 148.612 93.4876 165.653H106.488C106.488 155.792 114.481 147.799 124.341 147.799V134.799ZM155.195 165.653C155.195 148.612 141.382 134.799 124.341 134.799V147.799C134.202 147.799 142.195 155.792 142.195 165.653H155.195ZM154.169 173.566C154.84 171.034 155.195 168.38 155.195 165.653H142.195C142.195 167.247 141.988 168.783 141.602 170.239L154.169 173.566ZM190.153 165.403H147.886V178.403H190.153V165.403Z" fill="black"/>
<path fill-rule="evenodd" clip-rule="evenodd" d="M232.687 100.201C233.632 99.7302 234.78 100.115 235.25 101.061L241.722 114.071C242.192 115.016 241.807 116.163 240.862 116.634L219.635 127.194C218.69 127.664 217.543 127.279 217.072 126.333L216.561 125.306L153.567 156.645L148.117 145.689L211.111 114.351L210.6 113.324C210.13 112.378 210.515 111.231 211.46 110.76L232.687 100.201ZM145.762 140.956C140.096 129.565 126.268 124.925 114.877 130.592L114.574 130.742C111.726 132.159 109.228 134.189 107.258 136.687C102.862 142.261 96.0016 145.31 88.9186 144.838L76.7264 144.024C70.3109 143.595 63.8967 144.879 58.1399 147.743C40.1902 156.673 32.878 178.463 41.8078 196.413L49.1169 211.105C57.9733 228.907 79.5845 236.159 97.3868 227.303C103.31 224.356 108.307 219.834 111.829 214.233L118.294 203.951C122.094 197.908 128.79 194.305 135.927 194.464C139.216 194.537 142.474 193.809 145.419 192.344L145.933 192.089C157.119 186.524 161.676 172.944 156.111 161.758L145.762 140.956ZM120.75 177.779C127.349 177.779 132.699 172.43 132.699 165.831C132.699 159.232 127.349 153.882 120.75 153.882C114.151 153.882 108.802 159.232 108.802 165.831C108.802 172.43 114.151 177.779 120.75 177.779Z" fill="#0A94BF"/>
</svg>
