<svg width="250" height="250" viewBox="0 0 250 250" fill="none" xmlns="http://www.w3.org/2000/svg">
<mask id="path-2-inside-1_10_4" fill="white">
<rect x="44" y="16" width="161" height="217" rx="8"/>
</mask>
<rect x="44" y="16" width="161" height="217" rx="8" stroke="black" stroke-width="24" mask="url(#path-2-inside-1_10_4)"/>
<path fill-rule="evenodd" clip-rule="evenodd" d="M103.047 149.49C100.801 151.926 100.956 155.722 103.392 157.968L126.259 179.046C128.695 181.292 132.491 181.137 134.737 178.701L232.67 72.4558C234.915 70.0193 234.761 66.2235 232.324 63.9776L209.458 42.8999C207.021 40.654 203.225 40.8085 200.979 43.245L103.047 149.49ZM77.2487 205.196C76.246 207.745 78.9029 210.194 81.3619 208.987L127.487 186.356C129.38 185.427 129.749 182.886 128.199 181.457L100.881 156.276C99.3303 154.847 96.8278 155.421 96.0558 157.384L77.2487 205.196Z" fill="#EBEBEB"/>
<path d="M103.392 157.968L106.103 155.027L106.103 155.027L103.392 157.968ZM103.047 149.49L105.988 152.201L103.047 149.49ZM126.259 179.046L123.548 181.987L123.548 181.987L126.259 179.046ZM134.737 178.701L137.678 181.412L137.678 181.412L134.737 178.701ZM232.67 72.4558L229.728 69.7448L229.728 69.7448L232.67 72.4558ZM232.324 63.9776L235.035 61.0364L235.035 61.0364L232.324 63.9776ZM209.458 42.8999L206.747 45.841L206.747 45.841L209.458 42.8999ZM200.979 43.245L203.921 45.9561L203.921 45.9561L200.979 43.245ZM81.3619 208.987L79.6 205.396L79.6 205.396L81.3619 208.987ZM77.2487 205.196L73.5263 203.732L77.2487 205.196ZM127.487 186.356L129.249 189.947L129.249 189.947L127.487 186.356ZM128.199 181.457L130.91 178.515L128.199 181.457ZM100.881 156.276L98.1699 159.217L100.881 156.276ZM96.0558 157.384L92.3335 155.919L96.0558 157.384ZM106.103 155.027C105.291 154.278 105.239 153.013 105.988 152.201L100.106 146.779C96.3626 150.84 96.6202 157.166 100.681 160.909L106.103 155.027ZM128.97 176.105L106.103 155.027L100.681 160.909L123.548 181.987L128.97 176.105ZM131.796 175.99C131.047 176.802 129.782 176.853 128.97 176.105L123.548 181.987C127.609 185.73 133.935 185.473 137.678 181.412L131.796 175.99ZM229.728 69.7448L131.796 175.99L137.678 181.412L235.611 75.1669L229.728 69.7448ZM229.613 66.9187C230.426 67.6673 230.477 68.9326 229.728 69.7448L235.611 75.1669C239.354 71.106 239.096 64.7796 235.035 61.0364L229.613 66.9187ZM206.747 45.841L229.613 66.9187L235.035 61.0364L212.169 39.9587L206.747 45.841ZM203.921 45.9561C204.669 45.1439 205.934 45.0924 206.747 45.841L212.169 39.9587C208.108 36.2156 201.781 36.4731 198.038 40.534L203.921 45.9561ZM105.988 152.201L203.921 45.9561L198.038 40.534L100.106 146.779L105.988 152.201ZM79.6 205.396C80.4197 204.994 81.3053 205.81 80.9711 206.66L73.5263 203.732C71.1868 209.679 77.3862 215.393 83.1239 212.578L79.6 205.396ZM125.725 182.765L79.6 205.396L83.1239 212.578L129.249 189.947L125.725 182.765ZM125.488 184.398C124.971 183.921 125.094 183.074 125.725 182.765L129.249 189.947C133.666 187.779 134.528 181.85 130.91 178.515L125.488 184.398ZM98.1699 159.217L125.488 184.398L130.91 178.515L103.592 153.335L98.1699 159.217ZM99.7782 158.848C99.5209 159.502 98.6867 159.694 98.1699 159.217L103.592 153.335C99.9738 150 94.1347 151.34 92.3335 155.919L99.7782 158.848ZM80.9711 206.66L99.7782 158.848L92.3335 155.919L73.5263 203.732L80.9711 206.66Z" fill="#1A99C1"/>
<path fill-rule="evenodd" clip-rule="evenodd" d="M129.258 184.644C122.968 171.123 111.399 160.598 97.2129 155.818L200.978 43.2451C203.224 40.8086 207.02 40.654 209.457 42.8999L232.323 63.9776C234.76 66.2235 234.915 70.0194 232.669 72.4559L129.258 184.644ZM101.705 199.005L81.3611 208.987C78.902 210.194 76.2452 207.745 77.2478 205.196L85.3586 184.576C92.702 186.751 98.6721 192.093 101.705 199.005Z" fill="#1A99C1"/>
<path d="M129.258 184.644L125.631 186.331C126.194 187.541 127.323 188.391 128.642 188.596C129.961 188.802 131.295 188.336 132.199 187.355L129.258 184.644ZM97.2129 155.818L94.2718 153.107C93.3533 154.104 93.0018 155.497 93.3378 156.81C93.6738 158.123 94.6516 159.176 95.9358 159.609L97.2129 155.818ZM200.978 43.2451L203.92 45.9561L203.92 45.9561L200.978 43.2451ZM209.457 42.8999L206.746 45.8411L206.746 45.8411L209.457 42.8999ZM232.323 63.9776L235.035 61.0365L235.035 61.0365L232.323 63.9776ZM232.669 72.4559L229.728 69.7449L229.728 69.7449L232.669 72.4559ZM101.705 199.005L103.467 202.596C105.391 201.652 106.229 199.36 105.368 197.398L101.705 199.005ZM81.3611 208.987L79.5991 205.396L79.5991 205.396L81.3611 208.987ZM77.2478 205.196L80.9702 206.66L77.2478 205.196ZM85.3586 184.576L86.4944 180.741C84.5052 180.152 82.3957 181.181 81.6362 183.112L85.3586 184.576ZM132.885 182.957C126.143 168.463 113.736 157.164 98.49 152.028L95.9358 159.609C109.062 164.031 119.794 173.783 125.631 186.331L132.885 182.957ZM100.154 158.529L203.92 45.9561L198.037 40.534L94.2718 153.107L100.154 158.529ZM203.92 45.9561C204.668 45.1439 205.934 45.0924 206.746 45.8411L212.168 39.9588C208.107 36.2156 201.78 36.4732 198.037 40.534L203.92 45.9561ZM206.746 45.8411L229.612 66.9188L235.035 61.0365L212.168 39.9588L206.746 45.8411ZM229.612 66.9188C230.425 67.6674 230.476 68.9327 229.728 69.7449L235.61 75.1669C239.353 71.106 239.095 64.7796 235.035 61.0365L229.612 66.9188ZM229.728 69.7449L126.317 181.933L132.199 187.355L235.61 75.1669L229.728 69.7449ZM99.9435 195.414L79.5991 205.396L83.123 212.578L103.467 202.596L99.9435 195.414ZM79.5991 205.396C80.4188 204.994 81.3044 205.81 80.9702 206.66L73.5254 203.732C71.1859 209.679 77.3853 215.394 83.123 212.578L79.5991 205.396ZM80.9702 206.66L89.081 186.041L81.6362 183.112L73.5254 203.732L80.9702 206.66ZM105.368 197.398C101.867 189.42 94.9804 183.254 86.4944 180.741L84.2227 188.412C90.4236 190.248 95.477 194.766 98.0426 200.612L105.368 197.398Z" fill="#1A99C1"/>
</svg>
