<svg width="214" height="250" viewBox="0 0 214 250" fill="none" xmlns="http://www.w3.org/2000/svg">
<path d="M189.518 211.332V233.57" stroke="black" stroke-width="14"/>
<path d="M15 139C12.2386 139 10 141.239 10 144V176C10 178.761 12.2386 181 15 181H131C133.761 181 136 178.761 136 176V144C136 141.239 133.761 139 131 139H15Z" fill="black" stroke="black" stroke-width="10" stroke-linejoin="round"/>
<path d="M40.8036 175.637V142.91H53.7155C56.1978 142.91 58.3125 143.384 60.0596 144.332C61.8068 145.27 63.1385 146.575 64.0547 148.248C64.9815 149.909 65.4449 151.827 65.4449 154C65.4449 156.174 64.9762 158.091 64.0387 159.753C63.1012 161.415 61.7429 162.71 59.9637 163.636C58.1953 164.563 56.0539 165.027 53.5397 165.027H45.31V159.482H52.4211C53.7528 159.482 54.8501 159.253 55.713 158.794C56.5866 158.326 57.2365 157.681 57.6626 156.861C58.0994 156.03 58.3178 155.076 58.3178 154C58.3178 152.914 58.0994 151.966 57.6626 151.156C57.2365 150.336 56.5866 149.702 55.713 149.254C54.8395 148.796 53.7315 148.567 52.3892 148.567H47.723V175.637H40.8036ZM81.5409 175.637H69.9393V142.91H81.6368C84.9287 142.91 87.7625 143.565 90.1382 144.876C92.5139 146.175 94.341 148.045 95.6194 150.485C96.9084 152.924 97.553 155.843 97.553 159.242C97.553 162.651 96.9084 165.581 95.6194 168.031C94.341 170.481 92.5032 172.362 90.1062 173.672C87.7199 174.982 84.8648 175.637 81.5409 175.637ZM76.8587 169.709H81.2532C83.2987 169.709 85.0192 169.347 86.4148 168.622C87.8211 167.887 88.8758 166.753 89.5789 165.218C90.2927 163.674 90.6496 161.681 90.6496 159.242C90.6496 156.824 90.2927 154.847 89.5789 153.313C88.8758 151.779 87.8264 150.65 86.4308 149.925C85.0352 149.201 83.3147 148.839 81.2692 148.839H76.8587V169.709ZM102.679 175.637V142.91H124.348V148.615H109.598V156.413H122.909V162.118H109.598V175.637H102.679Z" fill="white"/>
<path d="M105.898 113.245C115.223 110.022 121.291 102.47 119.449 96.3773C117.608 90.285 108.555 87.9594 99.2296 91.183C89.9038 94.4066 83.8364 101.959 85.6778 108.051C87.5191 114.143 96.5718 116.469 105.898 113.245Z" fill="#0A94BF" stroke="#0A94BF" stroke-width="14"/>
<path d="M121.548 98.4297V32.4515" stroke="#0A94BF" stroke-width="10"/>
<path d="M193.714 233.996C193.714 233.996 64.2836 234.423 36.6095 233.996C14.4688 233.655 15.3273 208.592 34.0549 207.987C53.2077 207.369 193.714 207.987 193.714 207.987V11H45.976C31.4863 11 20.0049 15.3084 20.0049 31.8926L20.0049 192.387L20.0049 216.941" stroke="black" stroke-width="14" stroke-linecap="round" stroke-linejoin="round"/>
</svg>
