<svg width="250" height="250" viewBox="0 0 250 250" fill="none" xmlns="http://www.w3.org/2000/svg">
<path d="M124.5 24L211.536 74.25V174.75L124.5 225L37.4644 174.75V74.25L124.5 24Z" stroke="black" stroke-width="15" stroke-linejoin="round"/>
<path d="M124.5 225L125 125" stroke="black" stroke-width="12"/>
<path d="M211.5 74.5L125 125L37.5 74.5" stroke="black" stroke-width="12"/>
<ellipse cx="169.581" cy="149.416" rx="16.577" ry="10.1312" transform="rotate(123.386 169.581 149.416)" fill="#1A99C1"/>
<ellipse cx="96.0748" cy="173.942" rx="15.3106" ry="9.35728" transform="rotate(57.8134 96.0748 173.942)" fill="#1A99C1"/>
<ellipse cx="64.0748" cy="123.942" rx="15.3106" ry="9.35728" transform="rotate(57.8134 64.0748 123.942)" fill="#1A99C1"/>
<ellipse cx="88.1022" cy="75.5" rx="13.983" ry="9.32015" transform="rotate(0.740139 88.1022 75.5)" fill="#1A99C1"/>
<ellipse cx="125.102" cy="75.5" rx="13.983" ry="9.32015" transform="rotate(0.740139 125.102 75.5)" fill="#1A99C1"/>
<ellipse cx="162.102" cy="75.5" rx="13.983" ry="9.32015" transform="rotate(0.740139 162.102 75.5)" fill="#1A99C1"/>
</svg>
