<svg width="250" height="100" viewBox="0 0 250 100" fill="none" xmlns="http://www.w3.org/2000/svg">
<g clip-path="url(#clip0_12_17)">
<path d="M66.552 88.208V28.784H74.04V84.464L70.392 81.68C71.864 81.744 73.272 81.616 74.616 81.296C76.024 80.912 77.304 80.336 78.456 79.568C79.672 78.8 80.664 77.872 81.432 76.784C82.328 75.76 82.968 74.64 83.352 73.424C83.736 72.144 83.928 70.832 83.928 69.488C83.928 67.952 83.672 66.864 83.16 66.224C82.648 65.584 81.976 65.264 81.144 65.264C79.736 65.264 78.296 65.904 76.824 67.184C75.352 68.4 74.136 69.872 73.176 71.6L72.024 65.36C73.496 62.608 75.32 60.56 77.496 59.216C79.672 57.872 81.816 57.2 83.928 57.2C86.68 57.2 88.824 58.224 90.36 60.272C91.96 62.256 92.76 64.944 92.76 68.336C92.76 72.304 91.672 75.824 89.496 78.896C87.32 81.968 84.312 84.368 80.472 86.096C78.744 86.864 76.984 87.408 75.192 87.728C73.4 88.048 71.48 88.208 69.432 88.208H66.552Z" fill="black"/>
<path d="M140.663 20.4773L119.57 98.8438H109.438L130.532 20.4773H140.663Z" fill="#1A99C1"/>
<path d="M177.216 89L186.761 30.8182H194.716L185.17 89H177.216ZM150.994 74L152.33 66.0455H197.102L195.767 74H150.994ZM156.761 89L166.307 30.8182H174.261L164.716 89H156.761ZM154.375 53.7727L155.682 45.8182H200.455L199.148 53.7727H154.375Z" fill="black"/>
</g>
<defs>
<clipPath id="clip0_12_17">
<rect width="250" height="100" rx="2" fill="white"/>
</clipPath>
</defs>
</svg>
